<?xml version="1.0"?>
<svg xmlns="http://www.w3.org/2000/svg" xmlns:xlink="http://www.w3.org/1999/xlink" xmlns:svgjs="http://svgjs.com/svgjs" version="1.1" width="512" height="512" x="0" y="0" viewBox="0 0 128 128" style="enable-background:new 0 0 512 512" xml:space="preserve" class=""><g><path d="M127.912,23.532a1.75,1.75,0,0,0-1.405-1.182l-11.562-1.716,2.721-2.721a1.748,1.748,0,0,0,0-2.474l-5.1-5.106a1.75,1.75,0,0,0-2.474,0l-2.721,2.721L105.65,1.493a1.749,1.749,0,0,0-2.968-.98L89.9,13.3A61.034,61.034,0,1,0,114.7,38.1l12.783-12.784A1.749,1.749,0,0,0,127.912,23.532ZM59.763,68.238a5.368,5.368,0,0,0,7.58,0l5.4-5.4A12.342,12.342,0,0,1,73.5,67,12.5,12.5,0,1,1,61,54.5a12.333,12.333,0,0,1,4.166.755l-5.4,5.4a5.358,5.358,0,0,0,0,7.581Zm8.09-15.671a16.064,16.064,0,1,0,7.579,7.581l8.41-8.41A27.143,27.143,0,0,1,88.5,67,27.5,27.5,0,1,1,61,39.5a27.15,27.15,0,0,1,15.264,4.657ZM78.769,41.651A30.617,30.617,0,0,0,61,36,31,31,0,1,0,92,67a30.611,30.611,0,0,0-5.649-17.767L94.58,41A42.567,42.567,0,1,1,87,33.419Zm32.555-27.605,2.63,2.63L64.868,65.762a1.86,1.86,0,1,1-2.631-2.63Zm-8.626-8.6,1.587,10.69L92.609,27.811l-1.587-10.69ZM61,124.5A57.5,57.5,0,1,1,87.5,15.979a1.746,1.746,0,0,0-.065.785l2.1,14.128-.039.039a46.081,46.081,0,1,0,7.58,7.58l.039-.039,14.128,2.1a1.72,1.72,0,0,0,.257.019,1.763,1.763,0,0,0,.525-.089A57.485,57.485,0,0,1,61,124.5Zm49.881-87.52-10.69-1.586,11.676-11.676,10.69,1.587Z" fill="#ffffff" data-original="#000000" class=""/></g></svg>
